<svg width="332" height="332" viewBox="0 0 332 332" fill="none" xmlns="http://www.w3.org/2000/svg">
<g clip-path="url(#clip0_86_1339)">
<path d="M0 14C0 6.26801 6.26801 0 14 0H318C325.732 0 332 6.26801 332 14V318C332 325.732 325.732 332 318 332H14C6.26801 332 0 325.732 0 318V14Z" fill="url(#paint0_linear_86_1339)"/>
<path d="M191.167 23C191.167 -21.1828 226.984 -57 271.167 -57C315.35 -57 351.167 -21.1828 351.167 23C351.167 67.1828 315.35 103 271.167 103C226.984 103 191.167 67.1828 191.167 23Z" fill="white" fill-opacity="0.1"/>
<path d="M-36 275C-36 230.817 -0.182777 195 44 195C88.1828 195 124 230.817 124 275C124 319.183 88.1828 355 44 355C-0.182777 355 -36 319.183 -36 275Z" fill="white" fill-opacity="0.1"/>
<path d="M235.167 117C235.167 90.4903 256.657 69 283.167 69C309.676 69 331.167 90.4903 331.167 117C331.167 143.51 309.676 165 283.167 165C256.657 165 235.167 143.51 235.167 117Z" fill="white" fill-opacity="0.1"/>
<path d="M-30 174C-30 147.49 -8.50967 126 18 126C44.5097 126 66 147.49 66 174C66 200.51 44.5097 222 18 222C-8.50967 222 -30 200.51 -30 174Z" fill="white" fill-opacity="0.1"/>
</g>
<defs>
<linearGradient id="paint0_linear_86_1339" x1="166" y1="0" x2="166" y2="332" gradientUnits="userSpaceOnUse">
<stop stop-color="#134C29"/>
<stop offset="1" stop-color="#0D3620"/>
</linearGradient>
<clipPath id="clip0_86_1339">
<path d="M0 14C0 6.26801 6.26801 0 14 0H318C325.732 0 332 6.26801 332 14V318C332 325.732 325.732 332 318 332H14C6.26801 332 0 325.732 0 318V14Z" fill="white"/>
</clipPath>
</defs>
</svg>
